<svg width="0" height="0" class="hidden">
<symbol viewBox="0 0 47 47" fill="none" xmlns="http://www.w3.org/2000/svg" id="check">
<path d="M38.974 11.692L17.538 33.128l-9.743-9.743" stroke="#fff" stroke-width="3" stroke-linecap="round" stroke-linejoin="round"></path>
</symbol>
<symbol viewBox="0 0 24 24" fill="none" xmlns="http://www.w3.org/2000/svg" id="close">
<path opacity=".8" d="M3 3l18 18m0-18L3 21" stroke="#2B2D3A" stroke-width="2" stroke-linecap="round" stroke-linejoin="round"></path>
</symbol>
<symbol viewBox="0 0 24 24" fill="none" xmlns="http://www.w3.org/2000/svg" id="mail_icon">
<path d="M4 4h16c1.1 0 2 .9 2 2v12c0 1.1-.9 2-2 2H4c-1.1 0-2-.9-2-2V6c0-1.1.9-2 2-2z" stroke="#397DFF" stroke-linecap="round" stroke-linejoin="round"></path>
<path d="M22 6l-10 7L2 6" stroke="#397DFF" stroke-linecap="round" stroke-linejoin="round"></path>
</symbol>
<symbol viewBox="0 0 17 17" fill="none" xmlns="http://www.w3.org/2000/svg" id="next">
<path d="M5 .5l8 8-8 8" stroke="#fff" stroke-linecap="round" stroke-linejoin="round"></path>
</symbol>
<symbol viewBox="0 0 24 24" fill="none" xmlns="http://www.w3.org/2000/svg" id="phone_icon">
<path d="M22 16.92v3a2 2 0 0 1-2.18 2 19.79 19.79 0 0 1-8.63-3.07 19.5 19.5 0 0 1-6-6 19.79 19.79 0 0 1-3.07-8.67A2 2 0 0 1 4.11 2h3a2 2 0 0 1 2 1.72c.127.96.361 1.903.7 2.81a2 2 0 0 1-.45 2.11L8.09 9.91a15.999 15.999 0 0 0 6 6l1.27-1.27a2 2 0 0 1 2.11-.45c.907.339 1.85.573 2.81.7A2 2 0 0 1 22 16.92z"
    stroke="#397DFF" stroke-linecap="round" stroke-linejoin="round"></path>
</symbol>
<symbol viewBox="0 0 11 11" fill="none" xmlns="http://www.w3.org/2000/svg" id="plus">
<path d="M5.415 1v9M1 5.5h9" stroke="#fff" stroke-width="1.2" stroke-linecap="round" stroke-linejoin="round"></path>
</symbol>
<symbol viewBox="0 0 28 28" fill="none" xmlns="http://www.w3.org/2000/svg" id="speaker1">
<path d="M23.22 1.1A3.58 3.58 0 0 0 20.656 0H7.345A3.621 3.621 0 0 0 4.78 1.071a3.672 3.672 0 0 0-1.072 2.566v20.726a3.62 3.62 0 0 0 1.072 2.566A3.672 3.672 0 0 0 7.346 28h13.309a3.621 3.621 0 0 0 2.566-1.072 3.672 3.672 0 0 0 1.071-2.566V3.666A3.621 3.621 0 0 0 23.221 1.1zm-.337 23.263c0 .62-.254 1.156-.649 1.579a2.237 2.237 0 0 1-1.58.648H7.347c-.62 0-1.156-.254-1.58-.648a2.238 2.238 0 0 1-.648-1.58V3.666c0-.62.254-1.156.649-1.58a2.238 2.238 0 0 1 1.579-.648h13.309c.62 0 1.156.254 1.579.649.395.394.648.958.648 1.579v20.697z"
    fill="#fff"></path>
<path d="M14 19.459a.733.733 0 1 0 0-1.467.733.733 0 0 0 0 1.466z" fill="#fff"></path>
<path d="M14.001 12.04a6.815 6.815 0 0 0-4.737 1.945 6.645 6.645 0 0 0-1.946 4.737c0 1.833.762 3.525 1.946 4.737A6.644 6.644 0 0 0 14 25.405a6.815 6.815 0 0 0 4.737-1.946 6.645 6.645 0 0 0 1.946-4.737 6.815 6.815 0 0 0-1.946-4.737A6.815 6.815 0 0 0 14 12.04zm3.722 10.404a5.218 5.218 0 0 1-3.722 1.551 5.218 5.218 0 0 1-3.722-1.55 5.218 5.218 0 0 1-1.55-3.723c0-1.466.591-2.763 1.55-3.722a5.218 5.218 0 0 1 3.722-1.55A5.27 5.27 0 0 1 17.723 15a5.218 5.218 0 0 1 1.551 3.722c-.028 1.438-.592 2.764-1.55 3.722z"
    fill="#fff"></path>
<path d="M14 14.89c-1.071 0-2.03.424-2.707 1.128a3.818 3.818 0 0 0-1.128 2.707c0 1.072.423 2.03 1.128 2.707A3.817 3.817 0 0 0 14 22.56c1.072 0 2.03-.423 2.707-1.128a3.817 3.817 0 0 0 1.128-2.706c0-1.072-.423-2.03-1.128-2.707-.677-.705-1.635-1.128-2.707-1.128zm1.72 5.555a2.383 2.383 0 0 1-1.72.705c-.677 0-1.269-.281-1.72-.704a2.384 2.384 0 0 1-.705-1.72c0-.677.282-1.27.705-1.72A2.384 2.384 0 0 1 14 16.3c.677 0 1.27.282 1.72.705.451.452.705 1.044.705 1.72 0 .677-.282 1.27-.705 1.72zM14 11.222c1.184 0 2.255-.48 3.045-1.269a4.284 4.284 0 0 0 1.269-3.045c0-1.185-.48-2.256-1.27-3.046A4.284 4.284 0 0 0 14 2.593c-1.185 0-2.256.48-3.046 1.27a4.284 4.284 0 0 0-1.269 3.045c0 1.184.48 2.255 1.27 3.045A4.284 4.284 0 0 0 14 11.222zm-2.03-6.345A2.902 2.902 0 0 1 14 4.032c.79 0 1.522.31 2.03.845.507.508.846 1.241.846 2.03 0 .79-.31 1.523-.846 2.03a2.901 2.901 0 0 1-2.03.847c-.79 0-1.523-.31-2.03-.846a2.902 2.902 0 0 1-.847-2.03c0-.79.31-1.495.846-2.03z"
    fill="#fff"></path>
<path d="M14 8.572c.451 0 .846-.198 1.156-.48.31-.31.48-.705.48-1.156 0-.45-.198-.846-.48-1.156-.31-.31-.705-.48-1.156-.48-.451 0-.846.198-1.156.48-.31.31-.48.705-.48 1.156 0 .451.17.846.48 1.156.31.31.705.48 1.156.48zm-.338-1.974A.467.467 0 0 1 14 6.457c.113 0 .254.056.31.14a.453.453 0 0 1 .141.311c0 .141-.056.254-.14.31A.453.453 0 0 1 14 7.36c-.141 0-.254-.056-.31-.14a.453.453 0 0 1-.141-.311c0-.113.056-.226.113-.31z"
    fill="#fff"></path>
</symbol>
<symbol viewBox="0 0 154 50" fill="none" xmlns="http://www.w3.org/2000/svg" id="logo">
<path d="M145.172 30.77H3.924A3.924 3.924 0 0 0 0 34.692v7.537a3.924 3.924 0 0 0 3.924 3.924h141.248a3.924 3.924 0 0 0 3.924-3.924v-7.537a3.924 3.924 0 0 0-3.924-3.924z" fill="#2D3786"></path>
<path d="M33.35 3.37h-.298v19.912h8.665c2.82 0 4.779-.631 6.004-2.34 1.202-1.676 1.644-4.326 1.644-8.208 0-3.356-.462-5.712-1.647-7.225-1.201-1.536-3.089-2.137-5.746-2.137H33.35zm22.895 11.352v-.298H51.96v2.3c0 2.363.393 4.052 1.424 5.14 1.035 1.093 2.645 1.511 4.89 1.511 2.263 0 3.915-.448 4.993-1.547 1.076-1.097 1.514-2.778 1.514-5.082V2.587h-4.518V16.77c0 .528-.026.936-.09 1.254-.063.317-.159.524-.282.666-.244.28-.685.41-1.616.41-1.036 0-1.478-.142-1.705-.418-.117-.141-.202-.347-.255-.665-.053-.319-.07-.724-.07-1.247v-2.048zm19.43-3.96h-.002c-1.008-.063-1.752-.139-2.302-.241-.555-.104-.882-.23-1.082-.373-.182-.132-.275-.291-.325-.524-.055-.253-.056-.57-.056-1.014 0-.575.069-1.038.43-1.378.374-.35 1.128-.636 2.683-.636.682 0 1.212.028 1.625.1.413.071.685.183.872.333.361.29.51.811.51 1.918V9.5h4.382V8.206c0-2.281-.745-3.724-2.109-4.57-1.33-.826-3.195-1.05-5.349-1.05-2.509 0-4.409.457-5.685 1.458-1.291 1.012-1.891 2.54-1.891 4.548 0 2.362.651 3.895 1.93 4.862 1.254.947 3.058 1.305 5.25 1.47.862.064 1.543.137 2.08.235.538.098.912.218 1.174.366.251.143.4.312.491.528.097.226.14.523.14.933 0 .857-.136 1.357-.55 1.678-.445.344-1.28.543-2.87.543-.791 0-1.393-.012-1.858-.072-.465-.06-.753-.165-.944-.318-.182-.148-.313-.37-.396-.755-.084-.392-.113-.918-.113-1.64v-.552h-4.332v1.324c0 2.784.857 4.375 2.312 5.238 1.414.838 3.332.943 5.332.943 3.184 0 5.164-.539 6.334-1.699 1.174-1.163 1.46-2.879 1.46-5.014 0-2.216-.652-3.653-1.928-4.553-1.247-.879-3.038-1.204-5.214-1.347zm9.365-3.964v.298h5.354v15.987h4.603V7.095h5.352V2.879H85.04v3.918zm36.739-3.427h-.298V23.28h4.477v-6.306h4.149c.806 0 1.31.162 1.616.446.301.28.47.736.47 1.475v4.385h4.489v-4.69c0-1.047-.19-1.923-.595-2.602a2.965 2.965 0 0 0-1.174-1.121c.789-.477 1.277-1.19 1.572-1.991.361-.984.436-2.11.436-3.126 0-2.139-.468-3.752-1.523-4.826-1.057-1.075-2.645-1.552-4.75-1.552h-8.869zm30.259 4.086h.298V3.371h-12.82V23.28h12.82V19.2h-8.439v-3.959h8.049V11.16h-8.049V7.457h8.141zM37.5 7.534h4.217c1.32 0 2.03.202 2.468.921.234.382.406.934.518 1.737.112.802.16 1.83.16 3.153 0 1.315-.057 2.336-.19 3.13-.131.795-.334 1.34-.61 1.716-.53.73-1.406.937-2.99.937H37.5V7.534zm73.218-4.947c-3.095 0-5.183.519-6.465 2.103-1.265 1.562-1.68 4.085-1.68 7.885 0 2.188.082 3.956.312 5.374.229 1.418.61 2.51 1.223 3.331 1.242 1.662 3.348 2.095 6.61 2.095 3.175 0 5.277-.512 6.545-2.205.627-.837 1.03-1.936 1.278-3.342.248-1.405.345-3.137.345-5.253 0-3.758-.436-6.28-1.712-7.852-1.294-1.593-3.384-2.136-6.456-2.136zm0 16.553c-.839 0-1.465-.029-1.945-.153-.464-.12-.775-.325-1.004-.681-.239-.373-.405-.937-.506-1.81-.1-.87-.134-2.01-.134-3.513 0-1.562.038-2.731.145-3.61.107-.884.279-1.437.521-1.793.229-.339.538-.525 1.001-.629.48-.107 1.098-.121 1.922-.121.811 0 1.423.015 1.902.124.461.105.776.293 1.011.635.246.358.424.912.536 1.794.112.877.155 2.044.155 3.6 0 1.492-.037 2.628-.142 3.494-.105.87-.275 1.436-.519 1.813-.233.36-.549.569-1.012.691-.479.127-1.101.159-1.931.159zm15.24-11.606h4.285c.916 0 1.408.173 1.697.526.305.373.453 1.023.453 2.166 0 1.02-.18 1.651-.519 2.031-.331.37-.872.567-1.767.567h-4.149v-5.29z"
    fill="#3F476B" stroke="#3F476B" stroke-width=".596" stroke-miterlimit="10"></path>
<path d="M27.465 13.461c0 7.435-6.15 13.462-13.735 13.462C6.148 26.923 0 20.896 0 13.462 0 6.026 6.148 0 13.73 0c7.585 0 13.735 6.027 13.735 13.461z" fill="#397DFF"></path>
<path d="M21.578 18.895c.004.71-.642 1.29-1.425 1.29l-12.833.007c-.787 0-1.43-.58-1.43-1.287l-.005-.656c0-.708.646-1.288 1.431-1.288l12.833-.005c.787 0 1.43.58 1.43 1.287v.652h-.001zM20.05 14.99c.785 0 1.079-.486.654-1.083l-6.203-8.65c-.426-.597-1.123-.597-1.55 0l-6.19 8.654c-.427.596-.136 1.082.656 1.082l12.633-.004z"
    fill="#fff"></path>
<path d="M148.115 34.615H8.828a3.924 3.924 0 0 0-3.924 3.924v7.537A3.924 3.924 0 0 0 8.828 50h139.287a3.923 3.923 0 0 0 3.923-3.924V38.54a3.923 3.923 0 0 0-3.923-3.924z" fill="#397DFF"></path>
<path d="M37.362 39.389h.971v5.296l4.061-5.296h.903v6.866h-.962v-5.287l-4.07 5.287h-.903v-6.866zm14.078 0v6.866h-.98v-3.06h-3.944v3.06h-.98v-6.866h.98v2.952h3.944V39.39h.98zm5.31 6.944a3.86 3.86 0 0 1-1.864-.45 3.413 3.413 0 0 1-1.294-1.256 3.506 3.506 0 0 1-.471-1.805c0-.667.157-1.266.47-1.795a3.302 3.302 0 0 1 1.305-1.256 3.786 3.786 0 0 1 1.864-.46c.536 0 1.026.09 1.471.274.445.176.824.441 1.138.794l-.638.618c-.516-.542-1.16-.814-1.932-.814-.51 0-.971.115-1.383.343a2.515 2.515 0 0 0-.971.952 2.652 2.652 0 0 0-.343 1.344c0 .497.114.948.343 1.353.235.4.56.713.971.942a2.8 2.8 0 0 0 1.383.343c.765 0 1.41-.274 1.932-.824l.638.618a3.043 3.043 0 0 1-1.148.805 3.829 3.829 0 0 1-1.471.274zm8.71-6.091h-2.354v6.013h-.961v-6.013H59.8v-.853h5.66v.853zm5.408 4.296H67.22l-.756 1.717h-1.01l3.11-6.866h.97l3.12 6.866h-1.03l-.756-1.717zm-.343-.784l-1.481-3.365-1.481 3.365h2.962zm9.051-4.365v6.866h-.961v-6.013h-3.04l-.07 2.01c-.032.95-.11 1.717-.235 2.306-.118.589-.307 1.033-.569 1.334-.261.294-.614.441-1.06.441-.202 0-.408-.026-.617-.078l.069-.873c.104.026.209.04.313.04a.81.81 0 0 0 .677-.334c.17-.23.298-.57.383-1.02.085-.452.14-1.047.166-1.786l.108-2.893h4.836zm7.762 0v6.866h-.962v-6.013h-3.04l-.07 2.01c-.032.95-.11 1.717-.235 2.306-.117.589-.307 1.033-.569 1.334-.261.294-.614.441-1.059.441-.203 0-.409-.026-.618-.078l.069-.873c.105.026.21.04.314.04a.81.81 0 0 0 .676-.334c.17-.23.298-.57.383-1.02.085-.452.14-1.047.167-1.786l.108-2.893h4.836zm7.268 0v6.866h-.96v-2.001h-1.894c-.118 0-.206-.003-.265-.01l-1.373 2.01h-1.04l1.52-2.177c-.49-.163-.866-.434-1.127-.814-.262-.386-.393-.853-.393-1.402 0-.779.249-1.384.746-1.815.503-.438 1.18-.657 2.03-.657h2.756zm-4.541 2.462c0 .51.147.902.441 1.177.301.268.742.402 1.324.402h1.815v-3.188H91.89c-.588 0-1.04.137-1.353.412-.314.275-.471.673-.471 1.197zm13.609 3.55v2.413h-.912v-1.56h-5.915V39.39h.971v6.01h3.826v-6.01h.971v6.01h1.059zm1.404-6.012h.971v5.296l4.061-5.296h.902v6.866h-.961v-5.287l-4.071 5.287h-.902v-6.866zm8.173 0h.971v5.296l4.061-5.296h.902v6.866h-.961v-5.287l-4.071 5.287h-.902v-6.866z"
    fill="#fff"></path>
</symbol>
</svg>